# xmcd
#
# Track frame offsets:
#	150
#	16147
#	35355
#	53946
#	75651
#	90679
#	110946
#	124989
#	143765
#	166397
#	185232
#	209651
#
# Disc length: 2829 seconds
#
# Revision: 1
# Processed by: cddbd v1.5.2PL0 Copyright (c) Steve Scherf et al.
# Submitted via: audiograbber 1.83.01
#
DISCID=ae0b0b0c
DTITLE=Brad Paisley - A Brad Paisley Christmas
DYEAR=2006
DGENRE=
TTITLE0=Winter Wonderland
TTITLE1=Santa Looked A Lot Like Daddy
TTITLE2=I'll Be Home For Christmas
TTITLE3=Away In A Manger
TTITLE4=Penguin, James Penguin
TTITLE5=364 Days To Go
TTITLE6=Jingle Bells
TTITLE7=Silent Night
TTITLE8=Born On Christmas Day
TTITLE9=Silver Bells
TTITLE10=Kung Pao Buckaroo Holiday (featuring the Kung Pao Buckaroos)
TTITLE11=Little Jimmy Dickens outtake (Hidden Track)
EXTD=
EXTT0=
EXTT1=
EXTT2=
EXTT3=
EXTT4=
EXTT5=
EXTT6=
EXTT7=
EXTT8=
EXTT9=
EXTT10=
EXTT11=
PLAYORDER=
